<?xml version="1.0" standalone="no"?>
<!DOCTYPE svg PUBLIC "-//W3C//DTD SVG 20010904//EN"
 "http://www.w3.org/TR/2001/REC-SVG-20010904/DTD/svg10.dtd">
<svg version="1.0" xmlns="http://www.w3.org/2000/svg"
 width="596.000000pt" height="435.000000pt" viewBox="0 0 596.000000 435.000000"
 preserveAspectRatio="xMidYMid meet">

<g transform="translate(0.000000,435.000000) scale(0.100000,-0.100000)"
fill="#000000" stroke="none">
<path d="M2030 2710 l0 -980 985 0 985 0 0 980 0 980 -985 0 -985 0 0 -980z
m1160 496 l0 -44 -47 -7 c-115 -16 -222 -97 -271 -203 -37 -81 -42 -187 -12
-265 46 -122 161 -217 280 -233 l50 -7 0 -43 c0 -41 -2 -44 -27 -44 -16 0 -50
6 -78 14 -282 75 -416 379 -283 641 64 125 223 227 366 234 20 1 22 -4 22 -43z
m126 -164 c75 -38 144 -143 144 -219 0 -23 0 -23 -135 -23 l-135 0 0 -130 c0
-130 0 -130 -24 -130 -67 0 -149 51 -195 121 -28 43 -35 65 -39 121 -8 117 48
215 153 265 42 20 62 23 120 20 45 -2 85 -11 111 -25z m-648 -319 c36 -228
218 -410 445 -445 l77 -13 0 -42 c0 -38 -3 -43 -23 -43 -90 0 -238 50 -328
111 -141 95 -248 275 -265 445 l-7 64 44 0 44 0 13 -77z"/>
<path d="M290 785 l0 -585 115 0 115 0 1 283 1 282 57 -280 57 -280 112 -3
112 -3 0 586 0 585 -110 0 -110 0 -1 -272 -1 -273 -54 265 c-29 146 -53 268
-53 273 -1 4 -55 7 -121 7 l-120 0 0 -585z"/>
<path d="M1240 785 l0 -585 240 0 240 0 0 115 0 115 -120 0 -120 0 0 135 0
135 110 0 110 0 0 110 0 110 -110 0 -110 0 0 110 0 109 113 3 112 3 3 113 3
112 -236 0 -235 0 0 -585z"/>
<path d="M2046 1318 c3 -29 31 -291 62 -583 l57 -530 141 -3 141 -3 6 38 c3
21 16 143 28 272 13 129 25 229 27 223 2 -7 16 -128 31 -269 l26 -258 137 -3
c136 -3 138 -2 143 20 5 23 125 1108 125 1134 0 11 -24 14 -115 14 -85 0 -115
-3 -115 -12 1 -34 -52 -646 -57 -668 -6 -22 -61 549 -62 643 l-1 37 -109 0
-108 0 -6 -37 c-3 -21 -18 -183 -33 -360 -15 -177 -29 -321 -31 -320 -2 3 -63
676 -63 702 0 12 -20 15 -115 15 l-115 0 6 -52z"/>
<path d="M3320 786 l0 -586 173 0 c238 0 308 23 356 119 36 70 41 133 41 479
0 368 -6 424 -56 489 -14 18 -44 43 -67 56 -39 20 -57 22 -244 25 l-203 3 0
-585z m289 378 c25 -5 33 -13 41 -43 15 -55 13 -650 -3 -681 -10 -20 -21 -26
-55 -28 l-42 -3 0 380 c0 317 2 381 14 381 7 0 28 -3 45 -6z"/>
<path d="M4340 1363 c0 -5 -9 -98 -20 -208 -11 -110 -24 -249 -30 -310 -5 -60
-21 -225 -35 -365 -14 -140 -25 -261 -25 -268 0 -10 26 -12 113 -10 l112 3 2
50 c2 28 5 69 9 93 l5 42 68 0 68 0 7 -38 c3 -20 6 -56 6 -79 0 -73 -1 -73
122 -73 l110 0 -6 27 c-3 16 -29 279 -58 586 l-52 557 -198 0 c-109 0 -198 -3
-198 -7z m210 -300 c18 -191 40 -447 40 -465 0 -15 -9 -18 -51 -18 l-51 0 6
118 c4 64 9 133 11 152 2 19 7 78 10 130 7 120 16 193 22 187 2 -3 8 -49 13
-104z"/>
<path d="M5150 1365 c0 -3 41 -176 90 -384 l90 -378 0 -201 0 -202 110 0 110
0 0 185 0 185 90 383 c50 210 93 390 96 400 5 15 -5 17 -110 17 -101 0 -115
-2 -120 -17 -2 -10 -17 -96 -32 -192 -16 -105 -30 -167 -34 -155 -4 10 -19 97
-35 192 l-28 172 -113 0 c-63 0 -114 -2 -114 -5z"/>
</g>
</svg>
