<?xml version="1.0" standalone="no"?>
<!DOCTYPE svg PUBLIC "-//W3C//DTD SVG 20010904//EN"
 "http://www.w3.org/TR/2001/REC-SVG-20010904/DTD/svg10.dtd">
<svg version="1.0" xmlns="http://www.w3.org/2000/svg"
 width="197.000000pt" height="196.000000pt" viewBox="0 0 197.000000 196.000000"
 preserveAspectRatio="xMidYMid meet">

<g transform="translate(0.000000,196.000000) scale(0.100000,-0.100000)"
fill="#000000" stroke="none">
<path d="M0 980 l0 -980 985 0 985 0 0 980 0 980 -985 0 -985 0 0 -980z m1160
496 l0 -44 -47 -7 c-115 -16 -222 -97 -271 -203 -37 -81 -42 -187 -12 -265 46
-122 161 -217 280 -233 l50 -7 0 -43 c0 -41 -2 -44 -27 -44 -16 0 -50 6 -78
14 -282 75 -416 379 -283 641 64 125 223 227 366 234 20 1 22 -4 22 -43z m126
-164 c75 -38 144 -143 144 -219 0 -23 0 -23 -135 -23 l-135 0 0 -130 c0 -130
0 -130 -24 -130 -67 0 -149 51 -195 121 -28 43 -35 65 -39 121 -8 117 48 215
153 265 42 20 62 23 120 20 45 -2 85 -11 111 -25z m-648 -319 c36 -228 218
-410 445 -445 l77 -13 0 -42 c0 -38 -3 -43 -23 -43 -90 0 -238 50 -328 111
-141 95 -248 275 -265 445 l-7 64 44 0 44 0 13 -77z"/>
</g>
</svg>
